<?xml version="1.0" encoding="utf-8"?>
<!-- Generator: Adobe Illustrator 18.1.1, SVG Export Plug-In . SVG Version: 6.00 Build 0)  -->
<!DOCTYPE svg PUBLIC "-//W3C//DTD SVG 1.1//EN" "http://www.w3.org/Graphics/SVG/1.1/DTD/svg11.dtd">
<svg version="1.1" id="_x32_" xmlns="http://www.w3.org/2000/svg" xmlns:xlink="http://www.w3.org/1999/xlink" x="0px" y="0px"
	 viewBox="0 0 512 512" style="enable-background:new 0 0 512 512;" xml:space="preserve">
<style type="text/css">
	.st0{fill:#4B4B4B;}
</style>
<g>
	<path class="st0" d="M491.278,349.987h-42.144h-14.659h-40.2H376.6l-16.433,23.456h-76.562v-41.913l133.606-2.144
		c-23.768-64.048-23.768-136.812-0.231-175.189l-38.426,4.108c-1.904-4.369-3.406-9.238-4.428-14.48
		c-1.404-7.144-2.054-15.01-2.054-23.036c0-16.252,2.585-33.277,5.741-47.254c1.623-6.983,3.347-13.226,4.991-18.206
		c0.791-2.494,1.583-4.66,2.284-6.443c0.671-1.764,1.323-3.146,1.734-3.928l8.175-15.721L283.605,48.177v-29.93h-21.964v33.687
		L191.09,63.917l-2.054,3.688c-11.583,20.842-15.04,43.306-15.071,63.026c0.031,20.401,3.728,38.025,6.574,48.697l-26.062,2.786
		c-35.59,74.067,5.892,151.382,5.892,151.382l101.272-1.623v41.572h-68.557l-20.41-23.456h-45.02h-14.65H60.951l-34.96-57.154
		L0,302.593c0,0,18.707,42.514,81.241,130.459c25.1,35.3,62.535,54.709,95.761,58.617c12.625,1.483,35.14,2.084,61.252,2.084
		c61.021,0,141.682-3.246,161.531-5.992c26.132-3.597,64.489-5.852,90.872-58.617c9.599-19.208,16.884-48.336,21.343-79.157H491.278
		z M202.583,79.809l59.058-10.06l21.964-3.728l81.753-13.917c-2.024,6.562-4.099,14.449-5.922,23.276
		c-2.816,13.768-4.92,29.6-4.95,45.411c0,8.938,0.702,17.876,2.374,26.463c0.872,4.428,2.054,8.768,3.547,12.956l-76.802,8.177
		l-21.964,2.324l-63.377,6.734c-2.605-9.108-6.703-26.753-6.703-46.814C191.561,114.157,194.398,96.222,202.583,79.809z
		 M171.562,315.699c-8.237-20.03-23.828-68.867-5.07-117.173l95.15-10.121l21.964-2.345l105.59-11.222
		c-10.992,38.136-9.709,88.767,3.958,137.333l-109.548,1.734l-21.964,0.351L171.562,315.699z"/>
</g>
</svg>
